<?xml version="1.0" standalone="no"?>
<!DOCTYPE svg PUBLIC "-//W3C//DTD SVG 20010904//EN"
 "http://www.w3.org/TR/2001/REC-SVG-20010904/DTD/svg10.dtd">
<svg version="1.0" xmlns="http://www.w3.org/2000/svg"
 width="600.000000pt" height="600.000000pt" viewBox="0 0 600.000000 600.000000"
 preserveAspectRatio="xMidYMid meet">
<metadata>
Created by potrace 1.14, written by Peter Selinger 2001-2017
</metadata>
<g transform="translate(0.000000,600.000000) scale(0.100000,-0.100000)"
fill="#000000" stroke="none">
<path d="M2850 5519 c-105 -7 -306 -31 -355 -42 -304 -70 -486 -137 -720 -266
-448 -245 -817 -627 -1045 -1081 -140 -278 -220 -555 -258 -885 -9 -81 -9
-433 1 -520 6 -62 37 -244 50 -300 26 -107 86 -307 106 -350 5 -11 30 -67 56
-125 255 -579 769 -1073 1360 -1308 147 -58 304 -105 429 -128 16 -2 32 -7 35
-9 7 -4 140 -24 226 -33 79 -9 433 -9 510 0 468 53 882 212 1235 472 366 269
636 602 822 1011 38 83 114 288 122 329 2 6 8 29 14 51 64 228 99 569 82 793
-20 255 -34 337 -97 562 -129 464 -412 909 -768 1210 -42 36 -89 75 -103 88
-72 62 -313 211 -447 277 -162 79 -403 165 -555 196 -52 11 -103 22 -113 24
-49 11 -181 26 -257 30 -47 3 -114 7 -150 9 -36 2 -117 0 -180 -5z m360 -549
c47 -6 109 -15 138 -21 l52 -10 0 -89 c0 -49 -4 -91 -9 -94 -5 -3 -57 1 -115
11 -64 9 -111 12 -116 7 -5 -5 -11 -189 -15 -409 -3 -220 -8 -412 -11 -427 -5
-26 -9 -28 -55 -28 -96 0 -89 -36 -89 435 0 227 -3 421 -6 429 -5 14 -21 15
-119 10 l-112 -6 -6 88 c-4 48 -4 90 -1 93 19 20 331 27 464 11z m357 -72 l76
-22 -6 -75 c-6 -75 -19 -205 -58 -596 -11 -110 -23 -238 -26 -283 -4 -56 -10
-85 -19 -89 -7 -3 -39 4 -71 15 l-58 19 3 79 c1 43 9 169 17 279 8 110 22 301
30 425 16 230 21 270 31 270 3 0 40 -10 81 -22z m-970 -24 c65 -49 103 -150
103 -275 0 -107 -15 -167 -59 -241 -45 -75 -95 -109 -230 -157 -49 -18 -94
-38 -100 -44 -6 -9 -5 -46 4 -117 7 -58 16 -140 20 -182 l7 -77 -63 -30 c-35
-17 -67 -27 -71 -23 -8 8 -9 17 -63 392 -19 135 -46 322 -60 415 -14 94 -25
180 -25 193 0 23 6 26 162 95 56 25 199 71 248 80 42 8 94 -4 127 -29z m-592
-711 l83 -498 -21 -22 c-11 -13 -26 -23 -33 -23 -6 0 -17 -7 -24 -15 -7 -8
-22 -15 -35 -15 -27 0 -39 41 -85 280 -17 91 -46 242 -65 335 -18 94 -41 212
-51 264 l-18 94 30 24 c37 30 127 83 133 78 2 -3 41 -228 86 -502z m2138 471
c23 -15 44 -31 45 -35 2 -5 10 -9 17 -9 24 0 25 -29 4 -138 -11 -59 -24 -129
-29 -157 -94 -501 -115 -571 -190 -610 -96 -50 -260 42 -311 174 -24 62 -39
235 -22 252 13 13 143 -28 144 -44 0 -7 2 -37 4 -68 4 -84 49 -135 100 -115
29 11 44 73 100 413 30 186 57 344 60 351 7 19 32 14 78 -14z m-2584 -215 c68
-182 449 -1188 459 -1212 4 -10 7 10 7 46 0 54 5 70 28 100 50 65 83 82 164
82 44 0 77 -5 85 -12 19 -20 25 -16 32 25 7 49 64 115 113 134 43 16 121 15
153 -2 12 -6 22 -10 23 -8 47 93 94 136 163 145 74 10 155 -29 192 -92 12 -20
12 -20 24 0 56 94 170 123 261 65 30 -19 53 -43 64 -67 10 -21 18 -39 19 -41
1 -2 13 4 27 12 33 22 124 24 164 3 42 -22 90 -82 98 -123 3 -19 7 -34 9 -34
2 0 17 7 33 15 77 39 183 11 233 -62 35 -51 40 -144 11 -201 -39 -77 -117
-114 -206 -98 -45 9 -121 79 -130 121 -12 55 -11 55 -52 34 -77 -39 -178 -12
-227 61 -14 22 -26 44 -26 50 0 13 -2 13 -36 -5 -72 -37 -175 -8 -228 63 l-24
33 -18 -31 c-43 -71 -152 -108 -228 -76 -41 17 -53 20 -43 10 13 -13 -37 -84
-77 -111 -35 -23 -52 -28 -108 -28 -41 0 -72 5 -80 13 -16 16 -28 15 -28 -1 0
-7 -12 -37 -26 -65 -35 -71 -93 -106 -171 -103 -65 2 -103 20 -150 69 l-35 37
17 -34 c9 -18 32 -74 50 -125 18 -50 38 -102 44 -116 10 -23 143 -373 276
-725 95 -251 163 -429 184 -483 12 -29 21 -56 21 -60 0 -13 -71 -35 -80 -26
-4 5 -83 207 -175 449 -260 684 -529 1393 -740 1945 -106 278 -196 515 -199
527 -6 19 -2 25 26 37 18 8 38 13 43 12 6 -2 34 -68 64 -147z m2933 132 c13
-5 30 -12 40 -15 24 -7 12 -50 -122 -401 -33 -88 -59 -163 -58 -167 3 -6 44
99 180 455 6 15 14 27 19 27 14 0 121 -136 151 -192 27 -50 28 -53 22 -177
l-6 -126 56 -170 c65 -194 84 -231 167 -320 65 -69 133 -118 231 -167 60 -29
61 -31 41 -47 -11 -9 -75 -88 -142 -176 -67 -88 -137 -179 -156 -203 -25 -31
-45 -77 -71 -160 -90 -290 -115 -358 -141 -388 -16 -18 -48 -55 -73 -84 -79
-92 -95 -107 -145 -139 -59 -37 -94 -39 -133 -6 -41 34 -59 77 -93 218 -28
113 -43 155 -59 167 -12 9 -143 184 -179 240 -19 30 -45 80 -58 110 -12 30
-23 49 -23 41 0 -10 -4 -11 -13 -3 -9 8 -67 -133 -257 -635 -135 -355 -250
-647 -256 -650 -6 -2 -25 2 -42 9 l-31 13 153 400 c84 220 230 605 325 855 95
250 255 671 356 935 100 264 206 544 236 622 30 79 55 143 56 143 1 0 12 -4
25 -9z m-2628 -1226 l139 -365 -28 -42 c-15 -24 -71 -106 -125 -183 -53 -77
-102 -150 -108 -162 -7 -12 -25 -83 -42 -157 -26 -116 -64 -225 -112 -323 -6
-12 -25 -36 -43 -53 l-33 -32 -83 43 c-97 52 -173 135 -212 233 -22 53 -78
273 -77 301 0 6 24 23 53 39 158 87 269 181 312 267 15 30 31 56 36 59 4 3 13
80 19 170 13 206 26 288 56 368 27 71 93 202 103 202 3 0 68 -164 145 -365z
m1086 -320 c16 -8 33 -23 39 -32 8 -16 11 -15 31 9 27 36 70 42 150 24 36 -8
87 -17 113 -21 32 -4 50 -12 54 -23 9 -24 25 -32 40 -20 11 8 13 -27 11 -188
l-2 -199 -6 165 c-5 155 -5 160 -12 86 -5 -43 -8 -165 -8 -270 -1 -170 -2
-188 -15 -165 -13 24 -20 27 -117 35 -153 12 -174 11 -208 -14 -16 -13 -30
-18 -30 -12 0 6 -16 18 -36 26 -30 13 -51 13 -128 5 -50 -6 -107 -12 -126 -14
-25 -1 -38 -9 -47 -27 -11 -21 -13 10 -13 189 0 206 -5 244 -20 164 -5 -24 -8
10 -9 97 0 121 1 133 14 116 11 -15 15 -16 17 -5 1 8 5 -33 8 -91 l6 -105 2
121 2 122 78 11 c42 6 91 15 107 20 45 14 73 13 105 -4z m105 -666 c6 -7 -1
-6 -20 1 -16 6 -41 8 -55 5 -19 -4 -22 -3 -10 5 17 12 69 5 85 -11z m-38 -55
c-3 -3 -12 -4 -19 -1 -8 3 -5 6 6 6 11 1 17 -2 13 -5z m17 -519 c30 -30 36
-32 47 -19 17 21 70 11 118 -22 20 -13 48 -24 62 -24 39 0 52 -21 44 -72 -6
-41 -5 -45 20 -56 26 -12 27 -16 21 -58 -5 -37 -2 -51 15 -74 14 -18 18 -33
13 -42 -5 -7 -9 -31 -10 -53 -1 -22 -5 -50 -9 -62 -7 -21 1 -27 79 -64 l87
-42 -3 -114 -3 -115 -140 1 -140 2 -62 61 -62 61 -108 5 -108 4 -80 -65 -80
-66 -123 -3 -122 -3 0 131 0 130 49 18 c27 9 57 23 67 31 18 13 18 14 -9 35
-34 27 -34 55 -2 103 24 35 25 38 9 62 -22 34 -12 69 26 85 26 11 30 17 25 39
-9 41 31 95 73 99 26 3 32 8 32 27 0 33 47 68 82 61 19 -4 39 1 61 14 50 31
90 26 131 -15z"/>
<path d="M2338 4669 l-88 -31 1 -36 c0 -20 6 -82 13 -137 11 -99 12 -100 37
-98 44 3 162 54 188 81 49 53 63 123 38 185 -29 69 -71 77 -189 36z"/>
<path d="M2751 3629 c-40 -24 -52 -44 -56 -90 -9 -117 175 -165 230 -59 22 43
19 84 -10 119 -40 46 -114 60 -164 30z"/>
<path d="M3098 3633 c-54 -34 -70 -122 -30 -166 64 -72 201 -39 214 52 14 94
-102 165 -184 114z"/>
<path d="M3388 3524 c-41 -21 -62 -79 -48 -126 23 -78 129 -106 190 -50 82 74
34 193 -77 192 -21 -1 -50 -8 -65 -16z"/>
<path d="M2434 3486 c-86 -86 -6 -205 121 -182 31 6 84 45 86 64 0 4 2 15 4
25 6 30 -15 80 -44 104 -20 18 -39 23 -79 23 -48 0 -58 -4 -88 -34z"/>
<path d="M3683 3381 c-33 -21 -44 -42 -45 -91 -4 -136 222 -150 233 -15 4 49
-3 69 -32 96 -25 23 -40 29 -78 29 -28 0 -58 -8 -78 -19z"/>
<path d="M2164 3360 c-37 -15 -74 -68 -74 -107 0 -41 49 -97 93 -109 71 -17
157 41 157 107 0 84 -94 143 -176 109z"/>
<path d="M4337 3943 c-4 -3 -7 -11 -7 -17 0 -6 5 -5 12 2 6 6 9 14 7 17 -3 3
-9 2 -12 -2z"/>
<path d="M4321 3894 c0 -11 3 -14 6 -6 3 7 2 16 -1 19 -3 4 -6 -2 -5 -13z"/>
<path d="M4303 3855 c-3 -9 -3 -18 -1 -21 3 -3 8 4 11 16 6 23 -1 27 -10 5z"/>
<path d="M4449 3406 c-68 -24 -114 -71 -152 -153 -17 -39 -22 -66 -21 -143 0
-86 3 -101 32 -160 106 -222 354 -179 418 71 21 80 12 161 -25 243 -33 72 -70
112 -129 137 -51 22 -73 23 -123 5z"/>
<path d="M2820 2940 c-14 -4 -46 -8 -72 -9 -27 -1 -48 -5 -48 -11 0 -14 41
-12 119 5 60 14 73 14 110 2 45 -16 57 -7 16 11 -29 13 -87 14 -125 2z"/>
<path d="M3058 2939 c-45 -17 -32 -28 13 -12 37 12 50 12 110 -2 76 -17 119
-19 119 -6 0 5 -26 11 -57 14 -32 4 -80 8 -108 11 -27 3 -62 1 -77 -5z"/>
<path d="M3343 2890 c0 -25 2 -35 4 -22 2 12 2 32 0 45 -2 12 -4 2 -4 -23z"/>
<path d="M2795 2874 c-33 -8 -68 -12 -77 -10 -10 2 -18 -1 -18 -6 0 -7 20 -8
63 -2 34 4 88 8 120 8 63 1 75 10 26 20 -37 7 -37 7 -114 -10z"/>
<path d="M3056 2877 c-26 -11 -22 -12 45 -13 41 0 100 -4 132 -8 33 -5 57 -5
57 0 0 5 -19 10 -43 12 -23 1 -58 7 -77 12 -46 13 -78 12 -114 -3z"/>
<path d="M3342 2815 c0 -16 2 -22 5 -12 2 9 2 23 0 30 -3 6 -5 -1 -5 -18z"/>
<path d="M2825 2814 c-6 -2 -37 -8 -70 -14 -60 -9 -60 -9 15 -4 115 9 142 9
180 1 l35 -7 -30 15 c-28 13 -107 19 -130 9z"/>
<path d="M3051 2810 c-38 -16 -17 -23 28 -9 32 10 53 10 92 1 28 -7 72 -11 97
-11 l47 2 -55 8 c-102 16 -185 19 -209 9z"/>
<path d="M3342 2750 c0 -14 2 -19 5 -12 2 6 2 18 0 25 -3 6 -5 1 -5 -13z"/>
<path d="M2820 2750 c-14 -4 -46 -8 -72 -9 -27 -1 -48 -5 -48 -11 0 -14 45
-12 119 5 46 11 73 13 99 5 43 -11 56 -5 18 10 -31 12 -80 12 -116 0z"/>
<path d="M3051 2750 c-35 -15 -21 -21 21 -10 26 8 53 6 99 -5 72 -17 119 -19
119 -6 0 8 -40 14 -162 26 -29 3 -64 0 -77 -5z"/>
<path d="M3342 2695 c0 -16 2 -22 5 -12 2 9 2 23 0 30 -3 6 -5 -1 -5 -18z"/>
<path d="M2810 2690 c-14 -4 -46 -8 -72 -9 -29 -1 -48 -6 -48 -12 0 -9 16 -9
58 -3 31 4 85 8 120 9 34 0 62 3 62 6 0 19 -73 24 -120 9z"/>
<path d="M3043 2693 c-26 -10 -12 -21 16 -13 16 4 47 4 68 0 38 -9 100 -14
118 -10 16 3 -127 28 -160 28 -16 0 -36 -2 -42 -5z"/>
<path d="M2652 2610 c0 -14 2 -19 5 -12 2 6 2 18 0 25 -3 6 -5 1 -5 -13z"/>
<path d="M2818 2625 c-3 -3 -32 -10 -64 -15 -57 -9 -56 -9 16 -3 107 9 162 9
185 -1 20 -8 20 -7 1 8 -19 15 -125 23 -138 11z"/>
<path d="M3045 2615 c-20 -16 -19 -16 5 -8 27 9 77 9 185 0 64 -5 65 -5 20 4
-109 20 -189 22 -210 4z"/>
<path d="M2805 2560 c-16 -4 -50 -8 -74 -9 -34 -1 -42 -4 -34 -12 9 -9 33 -8
96 5 46 9 99 14 118 10 26 -4 30 -3 19 5 -17 12 -80 13 -125 1z"/>
<path d="M3045 2555 c-20 -16 -19 -16 5 -8 31 10 96 9 178 -4 35 -5 65 -6 67
-2 5 7 -48 15 -165 25 -52 5 -69 2 -85 -11z"/>
<path d="M2865 2514 c-5 -2 -46 -10 -90 -19 -77 -14 -78 -14 -20 -10 33 2 83
7 111 11 32 4 59 2 73 -5 13 -8 21 -8 21 -2 0 9 -11 14 -70 26 -8 2 -19 1 -25
-1z"/>
<path d="M3043 2504 c-27 -12 -11 -22 18 -12 29 10 74 7 144 -8 23 -5 27 -4
19 6 -12 12 -160 24 -181 14z"/>
</g>
</svg>
